<svg width="1920" height="60" viewBox="0 0 1920 60" fill="none" xmlns="http://www.w3.org/2000/svg">
<path d="M1920 17.9649C1861.82 13.3907 1803.64 8.81611 1745.45 10.959C1687.27 13.1016 1629.09 21.9613 1570.91 23.4138C1512.73 24.8662 1454.54 18.9121 1396.36 12.5157C1338.18 6.1196 1280 -0.718378 1221.82 0.0609208C1163.64 0.84022 1105.45 9.23745 1047.27 9.40206C989.092 9.56667 930.908 1.49933 872.727 2.39621C814.547 3.29309 756.362 13.1539 698.182 14.0726C640.001 14.9914 581.817 6.96781 523.636 7.84509C465.456 8.72238 407.271 18.5002 349.091 19.5215C290.91 20.5428 232.726 12.8077 174.545 9.40206C116.365 5.99646 58.1807 6.92078 0 7.84509V60C58.1807 60 116.365 60 174.545 60C232.726 60 290.91 60 349.091 60C407.271 60 465.456 60 523.636 60C581.817 60 640.001 60 698.182 60C756.362 60 814.547 60 872.727 60C930.908 60 989.092 60 1047.27 60C1105.45 60 1163.64 60 1221.82 60C1280 60 1338.18 60 1396.36 60C1454.54 60 1512.73 60 1570.91 60C1629.09 60 1687.27 60 1745.45 60C1803.64 60 1861.82 60 1920 60V17.9649Z" fill="#FCF9F5"/>
</svg>
