<svg width="1920" height="60" viewBox="0 0 1920 60" fill="none" xmlns="http://www.w3.org/2000/svg">
<path d="M0 42.0351C58.1807 46.6093 116.365 51.1839 174.545 49.041C232.726 46.8984 290.91 38.0387 349.091 36.5862C407.272 35.1338 465.456 41.0879 523.636 47.4843C581.817 53.8804 640.001 60.7184 698.182 59.9391C756.363 59.1598 814.547 50.7626 872.727 50.5979C930.908 50.4333 989.092 58.5007 1047.27 57.6038C1105.45 56.7069 1163.64 46.8461 1221.82 45.9274C1280 45.0086 1338.18 53.0322 1396.36 52.1549C1454.54 51.2776 1512.73 41.4998 1570.91 40.4785C1629.09 39.4572 1687.27 47.1923 1745.45 50.5979C1803.64 54.0035 1861.82 53.0792 1920 52.1549V-3.8147e-06C1861.82 -3.8147e-06 1803.64 -3.8147e-06 1745.45 -3.8147e-06C1687.27 -3.8147e-06 1629.09 -3.8147e-06 1570.91 -3.8147e-06C1512.73 -3.8147e-06 1454.54 -3.8147e-06 1396.36 -3.8147e-06C1338.18 -3.8147e-06 1280 -3.8147e-06 1221.82 -3.8147e-06C1163.64 -3.8147e-06 1105.45 -3.8147e-06 1047.27 -3.8147e-06C989.092 -3.8147e-06 930.908 -3.8147e-06 872.727 -3.8147e-06C814.547 -3.8147e-06 756.363 -3.8147e-06 698.182 -3.8147e-06C640.001 -3.8147e-06 581.817 -3.8147e-06 523.636 -3.8147e-06C465.456 -3.8147e-06 407.272 -3.8147e-06 349.091 -3.8147e-06C290.91 -3.8147e-06 232.726 -3.8147e-06 174.545 -3.8147e-06C116.365 -3.8147e-06 58.1807 -3.8147e-06 0 -3.8147e-06V42.0351Z" fill="#FCF9F5"/>
</svg>
